<svg width="56" height="45" viewBox="0 0 56 45" fill="none" xmlns="http://www.w3.org/2000/svg">
<path d="M50.4 0H5.6C2.52 0 0.028 2.53125 0.028 5.625L0 39.375C0 42.4688 2.52 45 5.6 45H50.4C53.48 45 56 42.4688 56 39.375V5.625C56 2.53125 53.48 0 50.4 0ZM49.28 11.9531L29.484 24.3844C28.588 24.9469 27.412 24.9469 26.516 24.3844L6.72 11.9531C6.43924 11.7948 6.19337 11.5809 5.99729 11.3244C5.8012 11.0679 5.65897 10.7741 5.57921 10.4607C5.49945 10.1474 5.48381 9.82107 5.53324 9.50149C5.58267 9.18191 5.69614 8.87573 5.86679 8.60147C6.03744 8.32722 6.26171 8.09059 6.52603 7.90592C6.79036 7.72125 7.08924 7.59238 7.40459 7.52709C7.71994 7.4618 8.04519 7.46147 8.36067 7.5261C8.67615 7.59074 8.9753 7.719 9.24 7.90312L28 19.6875L46.76 7.90312C47.0247 7.719 47.3238 7.59074 47.6393 7.5261C47.9548 7.46147 48.2801 7.4618 48.5954 7.52709C48.9108 7.59238 49.2096 7.72125 49.474 7.90592C49.7383 8.09059 49.9626 8.32722 50.1332 8.60147C50.3039 8.87573 50.4173 9.18191 50.4668 9.50149C50.5162 9.82107 50.5006 10.1474 50.4208 10.4607C50.341 10.7741 50.1988 11.0679 50.0027 11.3244C49.8066 11.5809 49.5608 11.7948 49.28 11.9531Z" fill="white"/>
</svg>
