<svg width="38" height="38" viewBox="0 0 38 38" fill="none" xmlns="http://www.w3.org/2000/svg">
<path d="M37.1067 16.13L36.8967 15.3133H19.5367V22.6867H29.92C29.3406 24.9366 28.0234 26.9272 26.1791 28.3401C24.3347 29.7529 22.0698 30.5064 19.7467 30.48C16.7148 30.4572 13.8014 29.3002 11.58 27.2367C10.4874 26.1598 9.61795 24.8779 9.02137 23.4646C8.4248 22.0512 8.11283 20.5341 8.10333 19C8.13859 15.9188 9.35848 12.9693 11.51 10.7633C13.7012 8.68751 16.6117 7.54172 19.63 7.56668C22.215 7.58657 24.704 8.54897 26.63 10.2733L31.7633 5.00001C28.38 1.9815 24.0007 0.319529 19.4667 0.333343C16.9724 0.318524 14.4997 0.795138 12.1896 1.73597C9.87959 2.6768 7.77748 4.06343 6.00333 5.81668C2.62862 9.32199 0.725957 13.9875 0.686893 18.8532C0.647829 23.7188 2.47534 28.4143 5.79333 31.9733C7.63164 33.8048 9.81651 35.2516 12.2203 36.2291C14.6241 37.2067 17.1985 37.6954 19.7933 37.6667C22.1464 37.6842 24.4785 37.2237 26.6483 36.3133C28.8182 35.4028 30.7806 34.0613 32.4167 32.37C35.6272 28.8398 37.3639 24.2142 37.27 19.4433C37.2942 18.3364 37.2396 17.2292 37.1067 16.13Z" fill="white"/>
</svg>
